<svg width="80" height="80" viewBox="0 0 80 80" fill="none" xmlns="http://www.w3.org/2000/svg">
<rect width="80" height="80" rx="40" fill="#004B49"/>
<path d="M44.2188 18.0625H45.9062V19.75H44.2188V18.0625Z" fill="#66CABE"/>
<path d="M30.7188 40.8438H34.0938V42.5312H30.7188V40.8438Z" fill="#66CABE"/>
<path d="M49.2812 14.6875H30.7188C29.3765 14.6888 28.0896 15.2226 27.1405 16.1718C26.1914 17.1209 25.6576 18.4078 25.6562 19.75V60.25C25.6576 61.5922 26.1914 62.8791 27.1405 63.8282C28.0896 64.7774 29.3765 65.3112 30.7188 65.3125H49.2812C50.6235 65.3112 51.9104 64.7774 52.8595 63.8282C53.8086 62.8791 54.3424 61.5922 54.3438 60.25V19.75C54.3424 18.4078 53.8086 17.1209 52.8595 16.1718C51.9104 15.2226 50.6235 14.6888 49.2812 14.6875ZM49.2812 63.625H30.7188C29.8236 63.625 28.9652 63.2694 28.3323 62.6365C27.6993 62.0035 27.3438 61.1451 27.3438 60.25V23.125H50.9688V21.4375H27.3438V19.75C27.3438 18.8549 27.6993 17.9964 28.3323 17.3635C28.9652 16.7306 29.8236 16.375 30.7188 16.375H49.2812C50.1764 16.375 51.0348 16.7306 51.6677 17.3635C52.3007 17.9964 52.6562 18.8549 52.6562 19.75V55.1875H29.0312V56.875H52.6562V60.25C52.6562 61.1451 52.3007 62.0035 51.6677 62.6365C51.0348 63.2694 50.1764 63.625 49.2812 63.625Z" fill="#66CABE"/>
<path d="M40 57.7188C39.4994 57.7188 39.01 57.8672 38.5937 58.1453C38.1775 58.4235 37.853 58.8188 37.6614 59.2813C37.4698 59.7439 37.4197 60.2528 37.5174 60.7438C37.6151 61.2348 37.8561 61.6859 38.2101 62.0399C38.5641 62.3939 39.0152 62.6349 39.5062 62.7326C39.9972 62.8303 40.5061 62.7802 40.9687 62.5886C41.4312 62.397 41.8265 62.0725 42.1047 61.6563C42.3828 61.24 42.5313 60.7506 42.5313 60.25C42.5313 59.5787 42.2646 58.9348 41.7899 58.4601C41.3152 57.9854 40.6713 57.7188 40 57.7188ZM40 61.0938C39.8331 61.0938 39.67 61.0443 39.5312 60.9516C39.3925 60.8588 39.2843 60.7271 39.2205 60.5729C39.1566 60.4187 39.1399 60.2491 39.1725 60.0854C39.205 59.9217 39.2854 59.7714 39.4034 59.6534C39.5214 59.5354 39.6717 59.455 39.8354 59.4225C39.9991 59.3899 40.1687 59.4066 40.3229 59.4705C40.4771 59.5343 40.6088 59.6425 40.7016 59.7812C40.7943 59.92 40.8438 60.0831 40.8438 60.25C40.8438 60.4738 40.7549 60.6884 40.5966 60.8466C40.4384 61.0049 40.2238 61.0938 40 61.0938Z" fill="#66CABE"/>
<path d="M37.4688 18.0625H42.5312V19.75H37.4688V18.0625Z" fill="#66CABE"/>
<path d="M36.3775 35.1846L33.599 32.4061L36.3775 29.6276L35.1844 28.4346L31.2129 32.4061L35.1844 36.3776L36.3775 35.1846Z" fill="#66CABE"/>
<path d="M44.8154 36.3776L48.7869 32.4061L44.8154 28.4346L43.6223 29.6276L46.4008 32.4061L43.6223 35.1846L44.8154 36.3776Z" fill="#66CABE"/>
<path d="M36.793 35.957L41.361 28.0451L42.8224 28.8889L38.2543 36.8008L36.793 35.957Z" fill="#66CABE"/>
<path d="M35.7812 40.8438H49.2812V42.5312H35.7812V40.8438Z" fill="#66CABE"/>
<path d="M30.7188 44.2188H49.2812V45.9062H30.7188V44.2188Z" fill="#66CABE"/>
<path d="M30.7188 47.5938H49.2812V49.2812H30.7188V47.5938Z" fill="#66CABE"/>
</svg>
