<svg width="80" height="80" viewBox="0 0 80 80" fill="none" xmlns="http://www.w3.org/2000/svg">
<rect width="80" height="80" rx="40" fill="#00A693"/>
<path d="M22.3151 33.2803L39.3776 42.4678C39.5688 42.5707 39.7825 42.6246 39.9997 42.6246C40.2169 42.6246 40.4306 42.5707 40.6218 42.4678L57.6843 33.2803C57.8927 33.1678 58.0667 33.0011 58.1881 32.7978C58.3094 32.5944 58.3734 32.3621 58.3734 32.1253C58.3734 31.8885 58.3094 31.6561 58.1881 31.4528C58.0667 31.2495 57.8927 31.0827 57.6843 30.9703L40.6218 21.7828C40.4306 21.6799 40.2169 21.626 39.9997 21.626C39.7825 21.626 39.5688 21.6799 39.3776 21.7828L22.3151 30.9703C22.1067 31.0827 21.9327 31.2495 21.8113 31.4528C21.69 31.6561 21.626 31.8885 21.626 32.1253C21.626 32.3621 21.69 32.5944 21.8113 32.7978C21.9327 33.0011 22.1067 33.1678 22.3151 33.2803ZM39.9997 24.4288L54.2941 32.1253L39.9997 39.8218L25.7053 32.1253L39.9997 24.4288Z" fill="#CCEDE9"/>
<path d="M56.4404 38.8451L40 47.6966L23.5597 38.8451C23.2545 38.6925 22.9019 38.6648 22.5766 38.7677C22.2513 38.8707 21.9789 39.0962 21.8171 39.3966C21.6553 39.697 21.6169 40.0486 21.7099 40.3769C21.8029 40.7051 22.0201 40.9843 22.3154 41.1551L39.3779 50.3426C39.5691 50.4456 39.7829 50.4994 40 50.4994C40.2172 50.4994 40.431 50.4456 40.6222 50.3426L57.6847 41.1551C57.98 40.9843 58.1972 40.7051 58.2902 40.3769C58.3832 40.0486 58.3447 39.697 58.1829 39.3966C58.0211 39.0962 57.7487 38.8707 57.4234 38.7677C57.0982 38.6648 56.7456 38.6925 56.4404 38.8451Z" fill="#CCEDE9"/>
<path d="M56.4404 46.7204L40 55.5719L23.5597 46.7204C23.2545 46.5678 22.9019 46.54 22.5766 46.643C22.2513 46.7459 21.9789 46.9715 21.8171 47.2719C21.6553 47.5723 21.6169 47.9238 21.7099 48.2521C21.8029 48.5804 22.0201 48.8595 22.3154 49.0304L39.3779 58.2179C39.5691 58.3208 39.7829 58.3747 40 58.3747C40.2172 58.3747 40.431 58.3208 40.6222 58.2179L57.6847 49.0304C57.8418 48.9518 57.9816 48.8424 58.0957 48.7088C58.2098 48.5752 58.296 48.42 58.349 48.2525C58.402 48.085 58.4208 47.9085 58.4044 47.7335C58.3879 47.5586 58.3365 47.3887 58.2532 47.234C58.1699 47.0793 58.0563 46.9429 57.9193 46.8329C57.7823 46.7229 57.6245 46.6416 57.4555 46.5937C57.2864 46.5458 57.1095 46.5323 56.9351 46.5541C56.7607 46.5758 56.5925 46.6324 56.4404 46.7204Z" fill="#CCEDE9"/>
</svg>
