<svg width="80" height="80" viewBox="0 0 80 80" fill="none" xmlns="http://www.w3.org/2000/svg">
<rect width="80" height="80" rx="40" fill="#00A693"/>
<path d="M53.2379 51.2171L47.8327 45.812C49.4709 43.6675 50.3693 41.0664 50.3697 38.3216C50.3697 35.0139 49.0814 31.904 46.7421 29.5651C44.4033 27.2262 41.2937 25.938 37.9856 25.938C34.6779 25.938 31.568 27.2262 29.2291 29.5651C24.4008 34.3938 24.4008 42.2502 29.2291 47.0781C31.568 49.4174 34.6779 50.7056 37.9856 50.7056C40.7304 50.7053 43.3315 49.8069 45.476 48.1687L50.8811 53.5739C51.2063 53.8994 51.6331 54.0622 52.0595 54.0622C52.486 54.0622 52.9128 53.8994 53.2379 53.5739C53.889 52.9233 53.889 51.8678 53.2379 51.2171ZM31.5859 44.7214C28.0573 41.1927 28.0577 35.4509 31.5859 31.9219C33.2953 30.2129 35.5682 29.2713 37.9856 29.2713C40.4034 29.2713 42.676 30.2129 44.3854 31.9219C46.0948 33.6313 47.0363 35.9042 47.0363 38.3216C47.0363 40.7394 46.0948 43.012 44.3854 44.7214C42.676 46.4307 40.4034 47.3723 37.9856 47.3723C35.5682 47.3723 33.2953 46.4307 31.5859 44.7214Z" fill="#CCEDE9"/>
</svg>
