<svg width="80" height="80" viewBox="0 0 80 80" fill="none" xmlns="http://www.w3.org/2000/svg">
<rect width="80" height="80" rx="40" fill="#004B49"/>
<path d="M56.3028 22.852H55.7688C56.7866 21.195 56.4108 18.9704 54.7774 17.7585C53.0174 16.4529 50.5163 16.8731 49.2881 18.7086L46.5155 22.8521H22.6979C20.7402 22.8521 19.1475 24.4448 19.1475 26.4025V49.1019C19.1475 51.0597 20.7402 52.6524 22.6979 52.6524H36.4889L35.4469 57.029H33.1979C31.7322 57.029 30.5397 58.2214 30.5397 59.6871V60.2421H27.7673C27.2818 60.2421 26.8884 60.6357 26.8884 61.121C26.8884 61.6063 27.2818 61.9999 27.7673 61.9999H51.2335C51.7189 61.9999 52.1124 61.6063 52.1124 61.121C52.1124 60.6357 51.7189 60.2421 51.2335 60.2421H48.461V59.6871C48.461 58.2214 47.2686 57.029 45.8028 57.029H43.5539L42.5118 52.6524H56.3028C58.2606 52.6524 59.8533 51.0597 59.8533 49.1019V44.1072V26.4024C59.8533 24.4447 58.2606 22.852 56.3028 22.852ZM43.7099 38.3027C42.3357 39.2647 39.7614 37.9572 37.3029 39.269C36.7031 36.1529 37.0813 33.2222 40.2035 32.5754C40.607 32.4913 41.0415 32.4532 41.4113 32.4606C42.4681 33.2447 43.537 34.0377 44.5908 34.8196C45.0521 36.1615 44.879 37.4844 43.7099 38.3027ZM44.5956 28.8821L47.0835 30.728L45.1702 33.0606C44.3826 32.4762 43.7055 31.9739 42.9178 31.3894C43.0814 31.145 44.4461 29.1054 44.5956 28.8821ZM50.7491 19.6862C51.4147 18.6912 52.7724 18.4597 53.73 19.1703C54.688 19.881 54.8595 21.2473 54.1004 22.1729C52.7535 23.8149 49.5514 27.719 48.1994 29.3673L45.5742 27.4196L50.7491 19.6862ZM46.7032 59.6871V60.2421H32.2975V59.6871C32.2975 59.1907 32.7014 58.7868 33.1979 58.7868H45.8028C46.2992 58.7868 46.7032 59.1907 46.7032 59.6871ZM41.7469 57.029H37.2538L38.2958 52.6524H40.7049L41.7469 57.029ZM58.0955 49.1019C58.0955 50.0904 57.2913 50.8946 56.3028 50.8946C54.9077 50.8946 24.2666 50.8946 22.698 50.8946C21.7095 50.8946 20.9053 50.0904 20.9053 49.1019V44.9861H23.4168C23.9023 44.9861 24.2957 44.5925 24.2957 44.1072C24.2957 43.6219 23.9023 43.2283 23.4168 43.2283H20.9052V26.4024C20.9052 25.4139 21.7093 24.6097 22.6978 24.6097H45.3393C44.4973 25.8681 42.0409 29.539 41.2629 30.7017C39.5405 30.7172 37.821 31.3173 36.6953 32.6314C35.1635 34.4195 34.8943 37.2291 35.8954 40.9821C36.0665 41.6239 36.8673 41.8538 37.3518 41.391C39.6243 39.2195 42.4547 41.5881 44.9893 39.5366C46.5365 38.2842 46.9027 36.2932 46.3193 34.4313C47.1079 33.4698 53.5845 25.5735 54.375 24.6097H56.3027C57.2912 24.6097 58.0953 25.4139 58.0953 26.4024V43.2282H30.4478C29.9624 43.2282 29.5689 43.6218 29.5689 44.1071C29.5689 44.5924 29.9624 44.986 30.4478 44.986H58.0955V49.1019Z" fill="#66CABE"/>
<path d="M26.7623 43.2452C26.3392 43.3317 26.0557 43.6974 26.0557 44.1075C26.0557 44.6573 26.5583 45.0783 27.106 44.9689C27.5926 44.8701 27.8891 44.4011 27.7959 43.9353C27.6981 43.4545 27.2317 43.1507 26.7623 43.2452Z" fill="#66CABE"/>
</svg>
