<svg width="80" height="80" viewBox="0 0 80 80" fill="none" xmlns="http://www.w3.org/2000/svg">
<rect width="80" height="80" rx="40" fill="#00A693"/>
<g clip-path="url(#clip0_4878_85635)">
<path d="M50.2432 23.6102V29.0532C50.2432 29.2937 50.1191 29.5119 49.9195 29.6227C49.5403 29.8333 49.1185 29.4409 49.0916 29.4153C48.8062 29.133 48.3456 29.1332 48.0602 29.4169C47.7731 29.7021 47.7718 30.166 48.057 30.453C48.3696 30.7677 48.9748 31.1563 49.6803 31.1563C49.9837 31.1563 50.3057 31.0844 50.6309 30.9038C51.2955 30.5348 51.7085 29.8257 51.7085 29.0531V23.6102C51.7085 23.2055 51.3805 22.8774 50.9758 22.8774C50.5711 22.8774 50.2432 23.2055 50.2432 23.6102Z" fill="#E5F6F4"/>
<path d="M56.4298 29.7003C55.737 29.7003 55.0695 29.4199 54.6441 28.9504C54.3724 28.6506 53.909 28.6279 53.6091 28.8994C53.3093 29.1711 53.2864 29.6345 53.5581 29.9344C54.2568 30.7054 55.3303 31.1657 56.4298 31.1657C57.7883 31.1657 58.9285 30.3026 59.1408 29.1134C59.2999 28.2226 58.8903 27.0569 57.2637 26.4569C56.4265 26.1481 55.6484 25.8115 55.4269 25.7144C55.2627 25.5876 55.1837 25.3898 55.2144 25.1759C55.2341 25.0385 55.3323 24.7031 55.8179 24.5569C56.8173 24.2559 57.7317 24.9849 57.7517 25.001C58.0613 25.2583 58.5211 25.2174 58.7806 24.9088C59.0409 24.5991 59.001 24.1368 58.6912 23.8765C58.6299 23.8249 57.1688 22.6197 55.3952 23.1538C54.5113 23.42 53.8862 24.1152 53.7638 24.9677C53.6493 25.7653 53.9948 26.5324 54.6657 26.9699C54.6981 26.9909 54.732 27.0095 54.7673 27.0252C54.8059 27.0424 55.7232 27.4507 56.7564 27.8318C57.0736 27.9488 57.8004 28.2827 57.6981 28.8559C57.6241 29.2709 57.1294 29.7003 56.4298 29.7003Z" fill="#E5F6F4"/>
<path d="M30.1106 35.6216C29.706 35.6216 29.3779 35.9496 29.3779 36.3543V42.9908C29.3779 43.3955 29.706 43.7235 30.1106 43.7235C30.5153 43.7235 30.8434 43.3955 30.8434 42.9908V40.2914H33.9706V42.9908C33.9706 43.3955 34.2986 43.7235 34.7033 43.7235C35.108 43.7235 35.436 43.3955 35.436 42.9908V36.3543C35.436 35.9496 35.108 35.6216 34.7033 35.6216C34.2986 35.6216 33.9706 35.9496 33.9706 36.3543V38.8261H30.8434V36.3543C30.8434 35.9496 30.5153 35.6216 30.1106 35.6216Z" fill="#E5F6F4"/>
<path d="M24.3298 42.9909V40.8369C24.7253 40.8349 25.1874 40.8327 25.445 40.8327C26.902 40.8327 28.0872 39.6639 28.0872 38.2272C28.0872 36.7905 26.902 35.6217 25.445 35.6217H23.5971C23.2033 35.6139 22.8575 35.9614 22.8644 36.3544V42.9909C22.8644 43.3956 23.1924 43.7237 23.5971 43.7237C24.0018 43.7237 24.3298 43.3956 24.3298 42.9909ZM25.445 37.0871C26.0829 37.0871 26.6218 37.6092 26.6218 38.2273C26.6218 38.8453 26.0828 39.3674 25.445 39.3674C25.1893 39.3674 24.7328 39.3695 24.3387 39.3715C24.3366 38.965 24.3332 37.5122 24.332 37.0871H25.445Z" fill="#E5F6F4"/>
<path d="M38.8442 42.9909V40.8369C39.2397 40.8349 39.7018 40.8327 39.9594 40.8327C41.4164 40.8327 42.6016 39.6639 42.6016 38.2272C42.6016 36.7905 41.4164 35.6217 39.9594 35.6217H38.1115C37.7177 35.6139 37.3719 35.9614 37.3788 36.3544V42.9909C37.3788 43.3956 37.7068 43.7237 38.1115 43.7237C38.5163 43.7237 38.8442 43.3956 38.8442 42.9909ZM39.9595 37.0871C40.5974 37.0871 41.1363 37.6092 41.1363 38.2273C41.1363 38.8453 40.5973 39.3674 39.9595 39.3674C39.7038 39.3674 39.2473 39.3695 38.8532 39.3715C38.8511 38.965 38.8477 37.5122 38.8465 37.0871H39.9595Z" fill="#E5F6F4"/>
<path d="M53.9062 41.8623H49.7628C49.9065 41.1442 49.9805 40.411 49.9805 39.6725C49.9805 38.94 49.9084 38.2242 49.7723 37.5311C51.0555 38.0281 52.4324 38.2882 53.817 38.2882C55.7682 38.2882 57.6891 37.7773 59.3719 36.8109C59.7228 36.6094 59.8438 36.1616 59.6424 35.8106C59.4409 35.4597 58.9932 35.3388 58.6421 35.5401C57.1811 36.3792 55.5126 36.8228 53.8171 36.8228C52.2415 36.8228 50.6774 36.4368 49.2941 35.7065C49.2754 35.6966 49.2563 35.6881 49.237 35.68C48.3432 33.3706 46.698 31.4326 44.6025 30.1678C44.2784 29.1876 44.1136 28.1622 44.1136 27.1192C44.1136 21.7687 48.4665 17.4156 53.8172 17.4156C59.1679 17.4156 63.5208 21.7687 63.5208 27.1192C63.5208 29.4589 62.6767 31.7186 61.1438 33.4819C60.8783 33.7874 60.9106 34.2501 61.2162 34.5156C61.3549 34.6362 61.5261 34.6953 61.6966 34.6953C61.9013 34.6953 62.105 34.61 62.2498 34.4433C64.0145 32.4131 64.9862 29.812 64.9862 27.1191C64.9862 20.9605 59.9759 15.9502 53.8173 15.9502C47.6587 15.9502 42.6483 20.9605 42.6483 27.1191C42.6483 27.8617 42.7217 28.5967 42.8654 29.3168C41.6298 28.8404 40.2885 28.5785 38.8869 28.5785H26.0938C24.0502 28.5785 22.0527 29.139 20.3174 30.1993C19.9721 30.4103 19.8632 30.8612 20.0741 31.2065C20.2852 31.5519 20.7361 31.6606 21.0813 31.4498C22.5866 30.5301 24.3199 30.0439 26.0938 30.0439H38.8866C44.1958 30.0439 48.5151 34.3633 48.5151 39.6724C48.5151 40.4133 48.4299 41.1477 48.2638 41.8621H46.563C41.726 41.8621 37.6028 44.9741 36.0887 49.3008H26.0938C20.7848 49.3008 16.4654 44.9814 16.4654 39.6724C16.4654 37.4212 17.2584 35.2314 18.6984 33.5063C18.9577 33.1957 18.9161 32.7336 18.6054 32.4743C18.2948 32.2151 17.8328 32.2566 17.5734 32.5673C15.914 34.5556 15 37.0788 15 39.6726C15 45.7896 19.9767 50.7664 26.0938 50.7664H35.6866C35.5442 51.4746 35.4691 52.2067 35.4691 52.9562C35.4691 59.0733 40.4458 64.0501 46.563 64.0501H47.1209C47.5256 64.0501 47.8536 63.7221 47.8536 63.3174C47.8536 62.9127 47.5256 62.5847 47.1209 62.5847H46.563C41.2539 62.5847 36.9346 58.2653 36.9346 52.9562C36.9346 47.6472 41.2539 43.3278 46.563 43.3278H53.9062C59.2153 43.3278 63.5347 47.6472 63.5347 52.9563C63.5347 58.2654 59.2153 62.5848 53.9062 62.5848H50.7822C50.3775 62.5848 50.0495 62.9128 50.0495 63.3175C50.0495 63.7222 50.3775 64.0502 50.7822 64.0502H53.9062C60.0234 64.0502 65.0001 59.0735 65.0001 52.9563C65.0001 46.8392 60.0233 41.8623 53.9062 41.8623Z" fill="#E5F6F4"/>
<path d="M50.7825 54.6102C50.3778 54.6102 50.0498 54.9382 50.0498 55.3429C50.0498 55.7476 50.3778 56.0756 50.7825 56.0756H52.088L51.4159 59.3085C51.3336 59.7047 51.5879 60.0926 51.9842 60.175C52.0345 60.1855 52.0847 60.1905 52.1341 60.1905C52.4739 60.1905 52.7788 59.9526 52.8507 59.6068L53.5847 56.0756H55.0023L54.3303 59.3085C54.2479 59.7047 54.5022 60.0926 54.8985 60.175C54.9488 60.1855 54.999 60.1905 55.0484 60.1905C55.3883 60.1905 55.6932 59.9526 55.765 59.6068L56.499 56.0756H58.1219C58.5266 56.0756 58.8546 55.7476 58.8546 55.3429C58.8546 54.9382 58.5266 54.6102 58.1219 54.6102H56.8036L57.389 51.7943H59.0072C59.4119 51.7943 59.7399 51.4663 59.7399 51.0616C59.7399 50.6569 59.4119 50.3288 59.0072 50.3288H57.6937L58.3514 47.1647C58.4337 46.7685 58.1794 46.3806 57.7831 46.2982C57.3868 46.2159 56.9989 46.4703 56.9167 46.8664L56.197 50.3288H54.7793L55.437 47.1647C55.5193 46.7685 55.265 46.3806 54.8687 46.2982C54.4728 46.2159 54.0846 46.4703 54.0023 46.8664L53.2826 50.3288H51.6678C51.2631 50.3288 50.9351 50.6569 50.9351 51.0616C50.9351 51.4663 51.2631 51.7943 51.6678 51.7943H52.9779L52.3926 54.6102H50.7825ZM54.4746 51.7943H55.8923L55.3069 54.6102H53.8893L54.4746 51.7943Z" fill="#E5F6F4"/>
<path d="M48.4517 55.0601C48.1414 54.8 47.6793 54.8408 47.4194 55.1508C47.3586 55.2233 47.2928 55.2913 47.2238 55.3526C46.8705 55.6673 46.4209 55.8269 45.8875 55.8269C44.4593 55.8269 43.2974 54.6649 43.2974 53.2367C43.2974 51.8085 44.4593 50.6466 45.8875 50.6466C46.4066 50.6466 46.9072 50.7994 47.3351 51.0885C47.6704 51.315 48.1258 51.2268 48.3524 50.8916C48.5789 50.5563 48.4908 50.1008 48.1556 49.8742C47.4845 49.4208 46.7002 49.1812 45.8875 49.1812C43.6513 49.1812 41.832 51.0005 41.832 53.2366C41.832 55.4729 43.6513 57.2922 45.8875 57.2922C46.7785 57.2922 47.5775 56.9999 48.1983 56.4469C48.3202 56.3385 48.4359 56.2191 48.5423 56.0922C48.8023 55.7822 48.7617 55.3201 48.4517 55.0601Z" fill="#E5F6F4"/>
</g>
<defs>
<clipPath id="clip0_4878_85635">
<rect width="50" height="50" fill="white" transform="translate(15 15)"/>
</clipPath>
</defs>
</svg>
