<svg width="80" height="80" viewBox="0 0 80 80" fill="none" xmlns="http://www.w3.org/2000/svg">
<rect width="80" height="80" rx="40" fill="#CCEDE9"/>
<g clip-path="url(#clip0_4878_85606)">
<path d="M49.8828 44.1378C49.624 43.6895 49.0506 43.5357 48.6022 43.7947C48.1538 44.0535 48.0001 44.6269 48.2591 45.0753L49.901 47.9192L46.8062 56.5845H34.2762L31.1814 47.9192L39.6036 33.3314V39.5153C39.6036 40.0331 40.0233 40.4528 40.5411 40.4528C41.0588 40.4528 41.4786 40.0331 41.4786 39.5153V33.3314L44.509 38.5801C44.7679 39.0285 45.3413 39.1822 45.7896 38.9232C46.238 38.6644 46.3917 38.0909 46.1327 37.6426L41.353 29.3638C41.0212 28.7485 40.0609 28.7486 39.7292 29.3638L29.3407 47.3573C29.2031 47.5956 29.1772 47.8823 29.2697 48.1413L32.285 56.5844H30.8452C30.3275 56.5844 29.9077 57.0042 29.9077 57.5219V63.0626C29.9077 63.5803 30.3275 64.0001 30.8452 64.0001H50.2371C50.7548 64.0001 51.1746 63.5803 51.1746 63.0626V57.522C51.1746 57.0042 50.7548 56.5845 50.2371 56.5845H48.7971L51.8126 48.1414C51.9051 47.8823 51.8792 47.5956 51.7416 47.3574L49.8828 44.1378ZM49.2996 62.1251H31.7828V58.4595H33.6084C33.6107 58.4595 33.6131 58.4598 33.6155 58.4598C33.6177 58.4598 33.6198 58.4595 33.622 58.4595H47.4604C47.4626 58.4595 47.4647 58.4598 47.4669 58.4598C47.4692 58.4598 47.4716 58.4595 47.474 58.4595H49.2997V62.1251H49.2996Z" fill="#008576"/>
<path d="M47.1963 42.2964C47.7141 42.2964 48.1338 41.8767 48.1338 41.3589C48.1338 40.8411 47.7141 40.4214 47.1963 40.4214C46.6785 40.4214 46.2588 40.8411 46.2588 41.3589C46.2588 41.8767 46.6785 42.2964 47.1963 42.2964Z" fill="#008576"/>
<path d="M36.833 47.826C36.833 49.8705 38.4962 51.5337 40.5407 51.5337C42.5852 51.5337 44.2485 49.8704 44.2485 47.826C44.2485 45.7815 42.5852 44.1182 40.5407 44.1182C38.4962 44.1182 36.833 45.7815 36.833 47.826ZM42.3734 47.826C42.3734 48.8365 41.5513 49.6587 40.5406 49.6587C39.5301 49.6587 38.7079 48.8365 38.7079 47.826C38.7079 46.8154 39.5301 45.9932 40.5406 45.9932C41.5514 45.9932 42.3734 46.8154 42.3734 47.826Z" fill="#008576"/>
<path d="M60.7922 23.4161C62.8367 23.4161 64.5 21.7528 64.5 19.7083C64.5 17.6638 62.8367 16.0006 60.7922 16.0006C59.0715 16.0006 57.6212 17.1788 57.2048 18.7708H44.2489V16.9375C44.2489 16.4197 43.8291 16 43.3114 16H37.7709C37.2533 16 36.8334 16.4197 36.8334 16.9375V18.7695H23.7948C23.378 17.1782 21.9279 16.0006 20.2078 16.0006C18.1633 16.0006 16.5 17.6639 16.5 19.7083C16.5 21.7527 18.1633 23.4161 20.2078 23.4161C21.929 23.4161 23.3798 22.2371 23.7955 20.6444H30.5048C25.8661 23.212 22.718 28.1568 22.718 33.8237V35.8074H20.8853C20.3675 35.8074 19.9478 36.2271 19.9478 36.7449V42.2854C19.9478 42.8032 20.3675 43.2229 20.8853 43.2229H26.4258C26.9435 43.2229 27.3633 42.8032 27.3633 42.2854V36.7449C27.3633 36.2271 26.9435 35.8074 26.4258 35.8074H24.593V33.8237C24.593 26.8726 30.0029 21.162 36.8333 20.6795V22.478C36.8333 22.9958 37.2532 23.4155 37.7708 23.4155H43.3114C43.8291 23.4155 44.2489 22.9958 44.2489 22.478V20.6795C51.0792 21.162 56.4892 26.8726 56.4892 33.8237V35.8074H54.6564C54.1388 35.8074 53.7189 36.2271 53.7189 36.7449V42.2854C53.7189 42.8032 54.1388 43.2229 54.6564 43.2229H60.197C60.7147 43.2229 61.1345 42.8032 61.1345 42.2854V36.7449C61.1345 36.2271 60.7147 35.8074 60.197 35.8074H58.3642V33.8237C58.3642 28.1578 55.2172 23.2138 50.5797 20.6458H57.2048C57.6212 22.2378 59.0715 23.4161 60.7922 23.4161ZM25.4883 41.3479H21.8228V37.6824H23.6446C23.6483 37.6825 23.6518 37.683 23.6555 37.683C23.6591 37.683 23.6627 37.6825 23.6663 37.6824H25.4883V41.3479ZM59.2596 41.3479H55.594V37.6824H57.4159C57.4195 37.6825 57.4231 37.683 57.4268 37.683C57.4304 37.683 57.434 37.6825 57.4376 37.6824H59.2596V41.3479ZM60.7922 17.8756C61.8028 17.8756 62.625 18.6978 62.625 19.7083C62.625 20.7188 61.8028 21.5411 60.7922 21.5411C59.7817 21.5411 58.9595 20.7189 58.9595 19.7083C58.9595 18.6977 59.7817 17.8756 60.7922 17.8756ZM20.2078 21.5411C19.1972 21.5411 18.375 20.7189 18.375 19.7083C18.375 18.6977 19.1972 17.8756 20.2078 17.8756C21.2183 17.8756 22.0405 18.6978 22.0405 19.7083C22.0405 20.7188 21.2183 21.5411 20.2078 21.5411ZM42.3739 21.5405H38.7084V17.875H42.374V21.5405H42.3739Z" fill="#008576"/>
</g>
<defs>
<clipPath id="clip0_4878_85606">
<rect width="48" height="48" fill="white" transform="translate(16.5 16)"/>
</clipPath>
</defs>
</svg>
