<svg width="20" height="20" viewBox="0 0 20 20" fill="none" xmlns="http://www.w3.org/2000/svg">
<g clip-path="url(#clip0_4878_85720)">
<path d="M0.132185 10.3206L4.67754 14.866C4.84081 15.0567 5.12776 15.0789 5.31842 14.9156C5.50908 14.7523 5.53131 14.4654 5.36799 14.2747C5.35276 14.2569 5.33619 14.2403 5.31842 14.2251L1.55032 10.4525L19.5455 10.4525C19.7965 10.4525 20 10.2489 20 9.99789C20 9.74684 19.7965 9.54337 19.5455 9.54337L1.55032 9.54337L5.31842 5.77527C5.50908 5.612 5.53131 5.32505 5.36799 5.13439C5.20467 4.94372 4.91776 4.9215 4.7271 5.08482C4.70933 5.10005 4.69273 5.11661 4.67753 5.13439L0.132144 9.67978C-0.0440621 9.857 -0.0440621 10.1433 0.132185 10.3206Z" fill="#323B50"/>
</g>
<defs>
<clipPath id="clip0_4878_85720">
<rect width="20" height="20" fill="white" transform="translate(20 20) rotate(180)"/>
</clipPath>
</defs>
</svg>
