<svg width="80" height="80" viewBox="0 0 80 80" fill="none" xmlns="http://www.w3.org/2000/svg">
<rect width="80" height="80" rx="40" fill="#00A693"/>
<g clip-path="url(#clip0_4878_85646)">
<path d="M54.375 48.7975V21.7917C54.375 20.5208 53.8702 19.3021 52.9716 18.4034C52.0729 17.5048 50.8542 17 49.5833 17H30.4167C29.1458 17 27.9271 17.5048 27.0284 18.4034C26.1298 19.3021 25.625 20.5208 25.625 21.7917V58.2083C25.625 58.8376 25.7489 59.4607 25.9897 60.042C26.2305 60.6234 26.5835 61.1516 27.0284 61.5966C27.4734 62.0415 28.0016 62.3945 28.583 62.6353C29.1643 62.8761 29.7874 63 30.4167 63C42.7696 63 42.2425 63.1438 42.645 62.6646C43.5075 61.6488 42.4246 61.2175 36.7513 56.3683C36.643 56.2764 36.5594 56.1588 36.5082 56.0263C36.4569 55.8939 36.4395 55.7507 36.4576 55.6098C36.4757 55.4689 36.5287 55.3347 36.6117 55.2195C36.6948 55.1043 36.8054 55.0117 36.9333 54.95C37.3646 54.7296 37.2017 54.7679 41.61 56.2438C41.7544 56.2925 41.9083 56.3061 42.059 56.2835C42.2097 56.2609 42.3528 56.2027 42.4765 56.1136C42.6002 56.0246 42.7008 55.9074 42.7701 55.7717C42.8394 55.636 42.8754 55.4857 42.875 55.3333V42.875C42.875 42.6208 42.976 42.3771 43.1557 42.1974C43.3354 42.0176 43.5792 41.9167 43.8333 41.9167C44.0875 41.9167 44.3313 42.0176 44.511 42.1974C44.6907 42.3771 44.7917 42.6208 44.7917 42.875V53.4167C44.7917 53.6708 44.8926 53.9146 45.0724 54.0943C45.2521 54.274 45.4958 54.375 45.75 54.375C46.0042 54.375 46.2479 54.274 46.4276 54.0943C46.6074 53.9146 46.7083 53.6708 46.7083 53.4167V49.5833C46.7083 49.3292 46.8093 49.0854 46.989 48.9057C47.1687 48.726 47.4125 48.625 47.6667 48.625C47.9208 48.625 48.1646 48.726 48.3443 48.9057C48.524 49.0854 48.625 49.3292 48.625 49.5833V53.4167C48.625 53.6708 48.726 53.9146 48.9057 54.0943C49.0854 54.274 49.3292 54.375 49.5833 54.375C49.8375 54.375 50.0813 54.274 50.261 54.0943C50.4407 53.9146 50.5417 53.6708 50.5417 53.4167V50.5417C50.5417 50.2875 50.6426 50.0437 50.8224 49.864C51.0021 49.6843 51.2458 49.5833 51.5 49.5833C51.7542 49.5833 51.9979 49.6843 52.1776 49.864C52.3574 50.0437 52.4583 50.2875 52.4583 50.5417V53.4167C52.4583 53.6708 52.5593 53.9146 52.739 54.0943C52.9187 54.274 53.1625 54.375 53.4167 54.375C53.6708 54.375 53.9146 54.274 54.0943 54.0943C54.274 53.9146 54.375 53.6708 54.375 53.4167V51.5C54.375 51.2458 54.476 51.0021 54.6557 50.8224C54.8354 50.6426 55.0792 50.5417 55.3333 50.5417C55.5875 50.5417 55.8313 50.6426 56.011 50.8224C56.1907 51.0021 56.2917 51.2458 56.2917 51.5V62.0417C56.2917 62.2958 56.3926 62.5396 56.5724 62.7193C56.7521 62.899 56.9958 63 57.25 63C57.5042 63 57.7479 62.899 57.9276 62.7193C58.1074 62.5396 58.2083 62.2958 58.2083 62.0417V51.5C58.207 51.0407 58.0958 50.5885 57.8838 50.1811C57.6718 49.7736 57.3653 49.4229 56.9899 49.1583C56.6146 48.8937 56.1813 48.7228 55.7263 48.6601C55.2714 48.5973 54.808 48.6444 54.375 48.7975ZM27.5417 21.7917C27.5417 21.0292 27.8446 20.2979 28.3837 19.7587C28.9229 19.2196 29.6542 18.9167 30.4167 18.9167H49.5833C50.3458 18.9167 51.0771 19.2196 51.6163 19.7587C52.1554 20.2979 52.4583 21.0292 52.4583 21.7917V22.75H27.5417V21.7917ZM39.3196 61.0833H30.4167C29.6542 61.0833 28.9229 60.7804 28.3837 60.2413C27.8446 59.7021 27.5417 58.9708 27.5417 58.2083V57.25H35.0071C35.3138 57.7196 35.1317 57.5088 39.3196 61.0833ZM50.0913 48.05C49.7426 47.5014 49.2183 47.0871 48.6039 46.8748C47.9895 46.6624 47.3213 46.6646 46.7083 46.8808V42.875C46.7083 42.1125 46.4054 41.3812 45.8663 40.8421C45.3271 40.3029 44.5958 40 43.8333 40C43.0708 40 42.3396 40.3029 41.8004 40.8421C41.2612 41.3812 40.9583 42.1125 40.9583 42.875H32.3333C32.0792 42.875 31.8354 42.976 31.6557 43.1557C31.476 43.3354 31.375 43.5792 31.375 43.8333C31.375 44.0875 31.476 44.3313 31.6557 44.511C31.8354 44.6907 32.0792 44.7917 32.3333 44.7917H40.9583V54.0013L38.1983 53.0429C37.8092 52.9136 37.3962 52.8723 36.9892 52.9219C36.5822 52.9716 36.1912 53.1111 35.8446 53.3302C35.4981 53.5493 35.2044 53.8427 34.985 54.1891C34.7656 54.5355 34.6258 54.9263 34.5758 55.3333H27.5417V24.6667H52.4583V47.8392C52.0729 47.6965 51.6605 47.6413 51.251 47.6778C50.8416 47.7143 50.4454 47.8414 50.0913 48.05Z" fill="#E5F6F4"/>
<path d="M37.125 28.4998V33.2915C37.125 33.7998 36.9231 34.2873 36.5636 34.6468C36.2042 35.0062 35.7167 35.2082 35.2083 35.2082C34.7 35.2082 34.2125 35.0062 33.853 34.6468C33.4936 34.2873 33.2917 33.7998 33.2917 33.2915V28.4998C33.2917 28.2457 33.1907 28.0019 33.011 27.8222C32.8313 27.6425 32.5875 27.5415 32.3333 27.5415C32.0792 27.5415 31.8354 27.6425 31.6557 27.8222C31.476 28.0019 31.375 28.2457 31.375 28.4998V33.2915C31.375 34.3082 31.7789 35.2832 32.4978 36.0021C33.2166 36.721 34.1917 37.1248 35.2083 37.1248C36.225 37.1248 37.2 36.721 37.9189 36.0021C38.6378 35.2832 39.0417 34.3082 39.0417 33.2915V28.4998C39.0417 28.2457 38.9407 28.0019 38.761 27.8222C38.5813 27.6425 38.3375 27.5415 38.0833 27.5415C37.8292 27.5415 37.5854 27.6425 37.4057 27.8222C37.226 28.0019 37.125 28.2457 37.125 28.4998Z" fill="#E5F6F4"/>
<path d="M46.8997 27.9248L44.7913 30.7328L42.683 27.9248C42.5305 27.7215 42.3035 27.5871 42.0519 27.5511C41.8003 27.5152 41.5447 27.5807 41.3413 27.7332C41.138 27.8857 41.0036 28.1127 40.9676 28.3643C40.9317 28.6159 40.9972 28.8715 41.1497 29.0748L43.5934 32.3332L41.1497 35.5915C40.9972 35.7948 40.9317 36.0504 40.9676 36.302C41.0036 36.5536 41.138 36.7807 41.3413 36.9332C41.5447 37.0857 41.8003 37.1512 42.0519 37.1152C42.3035 37.0793 42.5305 36.9448 42.683 36.7415L44.7913 33.9336L46.8997 36.7415C47.0522 36.9448 47.2792 37.0793 47.5308 37.1152C47.7824 37.1512 48.038 37.0857 48.2413 36.9332C48.4447 36.7807 48.5791 36.5536 48.615 36.302C48.651 36.0504 48.5855 35.7948 48.433 35.5915L45.9893 32.3332L48.433 29.0748C48.5855 28.8715 48.651 28.6159 48.615 28.3643C48.5791 28.1127 48.4447 27.8857 48.2413 27.7332C48.038 27.5807 47.7824 27.5152 47.5308 27.5511C47.2792 27.5871 47.0522 27.7215 46.8997 27.9248Z" fill="#E5F6F4"/>
<path d="M38.0833 39.0415H32.3333C32.0792 39.0415 31.8354 39.1425 31.6557 39.3222C31.476 39.5019 31.375 39.7457 31.375 39.9998C31.375 40.254 31.476 40.4978 31.6557 40.6775C31.8354 40.8572 32.0792 40.9582 32.3333 40.9582H38.0833C38.3375 40.9582 38.5813 40.8572 38.761 40.6775C38.9407 40.4978 39.0417 40.254 39.0417 39.9998C39.0417 39.7457 38.9407 39.5019 38.761 39.3222C38.5813 39.1425 38.3375 39.0415 38.0833 39.0415Z" fill="#E5F6F4"/>
<path d="M32.3333 48.6252H36.1667C36.4208 48.6252 36.6646 48.5242 36.8443 48.3445C37.024 48.1648 37.125 47.921 37.125 47.6668C37.125 47.4127 37.024 47.1689 36.8443 46.9892C36.6646 46.8095 36.4208 46.7085 36.1667 46.7085H32.3333C32.0792 46.7085 31.8354 46.8095 31.6557 46.9892C31.476 47.1689 31.375 47.4127 31.375 47.6668C31.375 47.921 31.476 48.1648 31.6557 48.3445C31.8354 48.5242 32.0792 48.6252 32.3333 48.6252Z" fill="#E5F6F4"/>
</g>
<defs>
<clipPath id="clip0_4878_85646">
<rect width="46" height="46" fill="white" transform="translate(17 17)"/>
</clipPath>
</defs>
</svg>
