<svg width="80" height="80" viewBox="0 0 80 80" fill="none" xmlns="http://www.w3.org/2000/svg">
<rect width="80" height="80" rx="40" fill="#CCEDE9"/>
<path d="M32.6666 49.5332H31.1999C30.7949 49.5332 30.4666 49.8616 30.4666 50.2665C30.4666 50.6715 30.7949 50.9999 31.1999 50.9999H32.6666C33.0715 50.9999 33.3999 50.6715 33.3999 50.2665C33.3999 49.8616 33.0715 49.5332 32.6666 49.5332Z" fill="#008576"/>
<path d="M53.1995 49.5332H35.5995C35.1946 49.5332 34.8662 49.8616 34.8662 50.2665C34.8662 50.6715 35.1946 50.9999 35.5995 50.9999H53.1995C53.6045 50.9999 53.9329 50.6715 53.9329 50.2665C53.9329 49.8616 53.6045 49.5332 53.1995 49.5332Z" fill="#008576"/>
<path d="M32.6666 45.1333H31.1999C30.7949 45.1333 30.4666 45.4617 30.4666 45.8666C30.4666 46.2716 30.7949 46.6 31.1999 46.6H32.6666C33.0715 46.6 33.3999 46.2716 33.3999 45.8666C33.3999 45.4617 33.0715 45.1333 32.6666 45.1333Z" fill="#008576"/>
<path d="M53.1995 45.1333H35.5995C35.1946 45.1333 34.8662 45.4617 34.8662 45.8666C34.8662 46.2716 35.1946 46.6 35.5995 46.6H53.1995C53.6045 46.6 53.9329 46.2716 53.9329 45.8666C53.9329 45.4617 53.6045 45.1333 53.1995 45.1333Z" fill="#008576"/>
<path d="M32.6666 40.7334H31.1999C30.7949 40.7334 30.4666 41.0617 30.4666 41.4667C30.4666 41.8717 30.7949 42.2001 31.1999 42.2001H32.6666C33.0715 42.2001 33.3999 41.8717 33.3999 41.4667C33.3999 41.0617 33.0715 40.7334 32.6666 40.7334Z" fill="#008576"/>
<path d="M53.1995 40.7334H35.5995C35.1946 40.7334 34.8662 41.0617 34.8662 41.4667C34.8662 41.8717 35.1946 42.2001 35.5995 42.2001H53.1995C53.6045 42.2001 53.9329 41.8717 53.9329 41.4667C53.9329 41.0617 53.6045 40.7334 53.1995 40.7334Z" fill="#008576"/>
<path d="M32.6666 36.3335H31.1999C30.7949 36.3335 30.4666 36.6618 30.4666 37.0668C30.4666 37.4718 30.7949 37.8002 31.1999 37.8002H32.6666C33.0715 37.8002 33.3999 37.4718 33.3999 37.0668C33.3999 36.6618 33.0715 36.3335 32.6666 36.3335Z" fill="#008576"/>
<path d="M53.1995 36.3335H35.5995C35.1946 36.3335 34.8662 36.6618 34.8662 37.0668C34.8662 37.4718 35.1946 37.8002 35.5995 37.8002H53.1995C53.6045 37.8002 53.9329 37.4718 53.9329 37.0668C53.9329 36.6618 53.6045 36.3335 53.1995 36.3335Z" fill="#008576"/>
<path d="M32.6666 31.9331H31.1999C30.7949 31.9331 30.4666 32.2615 30.4666 32.6664C30.4666 33.0714 30.7949 33.3998 31.1999 33.3998H32.6666C33.0715 33.3998 33.3999 33.0714 33.3999 32.6664C33.3999 32.2615 33.0715 31.9331 32.6666 31.9331Z" fill="#008576"/>
<path d="M53.1995 31.9331H35.5995C35.1946 31.9331 34.8662 32.2615 34.8662 32.6664C34.8662 33.0714 35.1946 33.3998 35.5995 33.3998H53.1995C53.6045 33.3998 53.9329 33.0714 53.9329 32.6664C53.9329 32.2615 53.6045 31.9331 53.1995 31.9331Z" fill="#008576"/>
<path d="M58.3241 28.9538C58.3205 28.8895 58.3079 28.8261 58.2867 28.7653C58.2787 28.7419 58.2728 28.7191 58.2625 28.6964C58.2269 28.6167 58.1772 28.5439 58.1159 28.4815L47.8492 18.2149C47.7869 18.1535 47.7141 18.1039 47.6343 18.0682C47.6116 18.0579 47.5889 18.0521 47.5661 18.044C47.5048 18.0229 47.4409 18.0101 47.3762 18.0059C47.3637 18.0081 47.3498 18 47.3337 18H26.8003C26.3953 18 26.067 18.3283 26.067 18.7333V20.9333H22.4003C21.9953 20.9333 21.667 21.2617 21.667 21.6667V61.2667C21.667 61.6716 21.9953 62 22.4003 62H53.2003C53.6053 62 53.9337 61.6716 53.9337 61.2667V57.6H57.6003C58.0053 57.6 58.3337 57.2717 58.3337 56.8667V29C58.3337 28.9839 58.3256 28.9699 58.3241 28.9538ZM48.067 20.5036L55.8301 28.2667H48.067V20.5036ZM52.467 60.5333H23.1337V22.4H26.067V56.8667C26.067 57.2717 26.3953 57.6 26.8003 57.6H52.467V60.5333ZM56.867 56.1333H27.5337V19.4667H46.6003V29C46.6003 29.405 46.9287 29.7333 47.3337 29.7333H56.867V56.1333Z" fill="#008576"/>
<path d="M35.5999 24.6001H31.1999C30.7949 24.6001 30.4666 24.9284 30.4666 25.3334V29.7334C30.4666 30.1384 30.7949 30.4668 31.1999 30.4668H35.5999C36.0049 30.4668 36.3332 30.1384 36.3332 29.7334V25.3334C36.3332 24.9284 36.0049 24.6001 35.5999 24.6001ZM34.8666 29.0001H31.9332V26.0668H34.8666V29.0001Z" fill="#008576"/>
</svg>
