<svg width="80" height="80" viewBox="0 0 80 80" fill="none" xmlns="http://www.w3.org/2000/svg">
<rect width="80" height="80" rx="40" fill="#CCEDE9"/>
<path d="M53.5281 24.4473H36.0454C35.58 24.4473 35.2031 24.8242 35.2031 25.2896C35.2031 25.7547 35.58 26.1318 36.0454 26.1318H53.5281C53.9932 26.1318 54.3704 25.7547 54.3704 25.2896C54.3704 24.8242 53.9932 24.4473 53.5281 24.4473Z" fill="#008576"/>
<path d="M26.9087 24.4473C26.6873 24.4473 26.4699 24.5373 26.3133 24.6939C26.1567 24.8505 26.0664 25.0682 26.0664 25.2896C26.0664 25.5109 26.1567 25.7283 26.3133 25.8849C26.4699 26.0416 26.6873 26.1318 26.9087 26.1318C27.1301 26.1318 27.3477 26.0416 27.5043 25.8849C27.661 25.7283 27.751 25.5109 27.751 25.2896C27.751 25.0682 27.661 24.8505 27.5043 24.6939C27.3477 24.5373 27.1301 24.4473 26.9087 24.4473Z" fill="#008576"/>
<path d="M23.814 24.4473C23.5926 24.4473 23.3752 24.5373 23.2186 24.6939C23.062 24.8505 22.9717 25.0682 22.9717 25.2896C22.9717 25.5109 23.062 25.7283 23.2186 25.8849C23.3752 26.0416 23.5926 26.1318 23.814 26.1318C24.0353 26.1318 24.253 26.0416 24.4096 25.8849C24.5662 25.7283 24.6563 25.5109 24.6563 25.2896C24.6563 25.0682 24.5662 24.8505 24.4096 24.6939C24.253 24.5373 24.0353 24.4473 23.814 24.4473Z" fill="#008576"/>
<path d="M30.0044 24.4473C29.782 24.4473 29.5656 24.5373 29.409 24.6939C29.2513 24.8505 29.1621 25.0682 29.1621 25.2896C29.1621 25.5109 29.2513 25.7283 29.409 25.8849C29.5656 26.0416 29.782 26.1318 30.0044 26.1318C30.2258 26.1318 30.4424 26.0416 30.6001 25.8849C30.7567 25.7283 30.8467 25.5109 30.8467 25.2896C30.8467 25.0682 30.7567 24.8505 30.6001 24.6939C30.4424 24.5373 30.2258 24.4473 30.0044 24.4473Z" fill="#008576"/>
<path d="M35.1811 53.1634C35.0245 53.0065 34.8068 52.9165 34.5855 52.9165C34.3641 52.9165 34.1467 53.0065 33.9901 53.1634C33.8334 53.32 33.7432 53.5372 33.7432 53.7588C33.7432 53.9804 33.8334 54.1976 33.9901 54.3542C34.1467 54.5108 34.3641 54.6011 34.5855 54.6011C34.8068 54.6011 35.0245 54.5108 35.1811 54.3542C35.3377 54.1976 35.4277 53.9804 35.4277 53.7588C35.4277 53.5364 35.3377 53.32 35.1811 53.1634Z" fill="#008576"/>
<path d="M58.5458 44.171C58.5471 44.1518 58.5484 44.1331 58.5484 44.1136V24.2788C58.5484 22.6995 57.2639 21.415 55.6846 21.415H21.6565C20.0775 21.415 18.7927 22.6995 18.7927 24.2788V51.7371C18.7927 53.3164 20.0775 54.6009 21.6565 54.6009H31.3428C31.8082 54.6009 32.1851 54.2237 32.1851 53.7586C32.1851 53.2935 31.8082 52.9163 31.3428 52.9163H21.6565C21.0064 52.9163 20.4773 52.3875 20.4773 51.7371V29.1638C20.4807 29.1638 20.4836 29.1641 20.4865 29.1641H56.8638V42.4854L52.1683 37.7899C51.5798 37.2013 50.7973 36.8773 49.965 36.8773C49.1324 36.8773 48.3496 37.2013 47.7611 37.7899C47.3673 38.1834 47.0922 38.664 46.9527 39.1883C46.5026 38.9438 45.9962 38.8141 45.4695 38.8141C44.637 38.8141 43.8547 39.1386 43.2662 39.7271C42.6326 40.3602 42.3294 41.2006 42.3562 42.0324C42.322 42.0311 42.2878 42.0303 42.2533 42.0303C41.421 42.0303 40.6382 42.3548 40.0497 42.9434C39.6917 43.3013 39.4314 43.7314 39.2824 44.2007L35.1673 40.0859C33.9523 38.8706 31.9753 38.8706 30.76 40.0859C29.545 41.3009 29.545 43.2779 30.76 44.4929L41.5476 55.2805L39.3393 54.7449C37.6213 54.3279 35.9162 55.3389 35.4589 57.0472C35.0233 58.672 35.9264 60.3782 37.5149 60.9322L45.9386 63.8695C47.2186 64.3156 48.5547 64.5401 49.8947 64.5401C50.793 64.5401 51.6924 64.4393 52.5779 64.2366C54.7844 63.7315 56.7962 62.6189 58.3965 61.0186C63.0331 56.3821 63.0825 48.8694 58.5458 44.171ZM20.4865 27.4795C20.4836 27.4795 20.4807 27.4798 20.4773 27.4798V24.2788C20.4773 23.6287 21.0064 23.0996 21.6565 23.0996H55.6849C56.335 23.0996 56.8641 23.6287 56.8641 24.2788V27.4795H20.4865ZM57.2055 59.8275C54.4191 62.6139 50.2142 63.576 46.4934 62.2786L38.0692 59.3416C37.3096 59.0766 36.8777 58.2604 37.0859 57.4833C37.2714 56.79 37.8863 56.337 38.5701 56.337C38.6928 56.337 38.8176 56.3515 38.9421 56.3818L44.0663 57.625C44.433 57.7144 44.8144 57.5484 44.9989 57.2191C45.1839 56.8901 45.1273 56.4781 44.8604 56.211L31.9511 43.3019C31.3928 42.7436 31.3928 41.8352 31.9511 41.277C32.5096 40.7189 33.418 40.7189 33.9763 41.277L40.0499 47.3506C40.0499 47.3509 40.0502 47.3509 40.0502 47.3512L44.4196 51.7205C44.5841 51.8848 44.7996 51.9669 45.0152 51.9669C45.2305 51.9669 45.4464 51.8848 45.6109 51.7205C45.9396 51.3915 45.9396 50.8582 45.6109 50.5292L41.2415 46.1598C41.2412 46.1596 41.2412 46.1596 41.241 46.1596C40.9704 45.889 40.8217 45.5295 40.8217 45.1467C40.8217 44.7645 40.9704 44.4047 41.241 44.1344C41.5113 43.8638 41.8711 43.7148 42.2536 43.7148C42.636 43.7148 42.9956 43.8638 43.2662 44.1344L47.8632 48.7312C48.0277 48.8957 48.243 48.9778 48.4586 48.9778C48.6742 48.9778 48.8897 48.8957 49.0542 48.7312C49.3833 48.4024 49.3833 47.8692 49.0542 47.5401L44.4575 42.9431C43.8992 42.3846 43.8992 41.4762 44.4575 40.9182C44.7278 40.6479 45.0876 40.4986 45.4698 40.4986C45.8522 40.4986 46.2118 40.6479 46.4821 40.9182L47.7608 42.1969C47.7611 42.1969 47.7611 42.1972 47.7613 42.1972L51.1213 45.5571C51.2858 45.7216 51.5014 45.8037 51.7169 45.8037C51.9325 45.8037 52.1483 45.7216 52.3123 45.5571C52.6413 45.2283 52.6413 44.6951 52.3123 44.366L48.9524 41.0058C48.6821 40.7355 48.5331 40.376 48.5331 39.9933C48.5331 39.6108 48.6821 39.2515 48.9524 38.9809C49.223 38.7106 49.5825 38.5614 49.965 38.5614C50.3474 38.5614 50.7072 38.7106 50.9776 38.9809L57.206 45.2089C61.2358 49.2395 61.2358 55.7969 57.2055 59.8275Z" fill="#008576"/>
<path d="M33.5107 36.7408V34.9272C33.5107 34.4621 33.1338 34.085 32.6685 34.085C32.2034 34.085 31.8262 34.4621 31.8262 34.9272V36.7408C31.8262 37.2062 32.2034 37.5831 32.6685 37.5831C33.1338 37.5831 33.5107 37.2062 33.5107 36.7408Z" fill="#008576"/>
<path d="M25.5103 41.2432C25.0452 41.2432 24.668 41.6204 24.668 42.0855C24.668 42.5508 25.0452 42.9277 25.5103 42.9277H27.3238C27.7892 42.9277 28.1661 42.5508 28.1661 42.0855C28.1661 41.6204 27.7892 41.2432 27.3238 41.2432H25.5103Z" fill="#008576"/>
<path d="M28.9701 39.2289C29.1857 39.2289 29.401 39.1465 29.5655 38.982C29.8946 38.6533 29.8946 38.12 29.5655 37.791L26.4183 34.6437C26.0893 34.3147 25.556 34.3147 25.2272 34.6437C24.8982 34.9722 24.8982 35.5058 25.2272 35.8348L28.3745 38.982C28.539 39.1465 28.7546 39.2289 28.9701 39.2289Z" fill="#008576"/>
</svg>
