<svg width="80" height="80" viewBox="0 0 80 80" fill="none" xmlns="http://www.w3.org/2000/svg">
<rect width="80" height="80" rx="40" fill="#00A693"/>
<g clip-path="url(#clip0_4878_85699)">
<path d="M27.0889 24.0737C25.3765 24.0737 23.9834 25.4664 23.9834 27.178C23.9834 28.8897 25.3765 30.2823 27.0889 30.2823C28.8026 30.2823 30.1969 28.8897 30.1969 27.178C30.1969 25.4664 28.8026 24.0737 27.0889 24.0737ZM27.0889 28.431C26.3974 28.431 25.8348 27.8689 25.8348 27.178C25.8348 26.4872 26.3974 25.9252 27.0889 25.9252C27.7818 25.9252 28.3456 26.4873 28.3456 27.1781C28.3456 27.869 27.7818 28.431 27.0889 28.431Z" fill="#E5F6F4"/>
<path d="M54.2423 24.0737H46.033C44.3206 24.0737 42.9275 25.4664 42.9275 27.178C42.9275 28.8897 44.3206 30.2823 46.033 30.2823H54.2423C55.9547 30.2823 57.3478 28.8897 57.3478 27.178C57.3478 25.4664 55.9547 24.0737 54.2423 24.0737ZM54.2423 28.431H46.033C45.3415 28.431 44.7789 27.8689 44.7789 27.178C44.7789 26.4872 45.3416 25.9251 46.033 25.9251H54.2423C54.9338 25.9251 55.4963 26.4872 55.4963 27.178C55.4963 27.8689 54.9338 28.431 54.2423 28.431Z" fill="#E5F6F4"/>
<path d="M35.1367 24.0737C33.4244 24.0737 32.0312 25.4664 32.0312 27.178C32.0312 28.8897 33.4244 30.2823 35.1367 30.2823C36.8505 30.2823 38.2448 28.8897 38.2448 27.178C38.2448 25.4664 36.8505 24.0737 35.1367 24.0737ZM35.1367 28.431C34.4452 28.431 33.8827 27.8689 33.8827 27.178C33.8827 26.4872 34.4453 25.9251 35.1367 25.9251C35.8296 25.9251 36.3934 26.4872 36.3934 27.178C36.3934 27.8689 35.8296 28.431 35.1367 28.431Z" fill="#E5F6F4"/>
<path d="M33.627 39.4197C33.1299 39.3006 32.6302 39.6075 32.5115 40.1049L30.675 47.7899C30.5562 48.2872 30.8629 48.7866 31.3601 48.9054C31.4325 48.9227 31.5049 48.931 31.5761 48.931C31.9946 48.931 32.3741 48.6452 32.4757 48.2203L34.3121 40.5352C34.431 40.0379 34.1242 39.5386 33.627 39.4197Z" fill="#E5F6F4"/>
<path d="M37.0259 48.0022C37.2023 48.1593 37.4223 48.2366 37.6413 48.2366C37.8962 48.2366 38.15 48.132 38.333 47.9266L40.9288 45.0126C41.3571 44.5358 41.3571 43.7892 40.9315 43.3154L38.3329 40.3984C37.9927 40.0165 37.4075 39.9829 37.0259 40.3228C36.644 40.6629 36.6102 41.2481 36.9503 41.6298L39.2064 44.1624L36.9503 46.6951C36.6103 47.077 36.6441 47.6622 37.0259 48.0022Z" fill="#E5F6F4"/>
<path d="M27.9621 40.3228C27.5803 39.9827 26.9952 40.0168 26.6551 40.3984L24.0596 43.3121C23.6307 43.789 23.6307 44.536 24.0566 45.0096L26.6552 47.9266C26.8382 48.1321 27.0919 48.2366 27.3469 48.2366C27.5659 48.2366 27.786 48.1593 27.9623 48.0022C28.3442 47.6621 28.378 47.0768 28.0379 46.6952L25.7818 44.1626L28.0379 41.6299C28.3778 41.248 28.344 40.6628 27.9621 40.3228Z" fill="#E5F6F4"/>
<path d="M63.4246 50.1679H63.0809C62.9009 49.5848 62.6676 49.0219 62.383 48.4839L62.6283 48.2378C63.02 47.8485 63.2362 47.3287 63.237 46.774C63.2378 46.2181 63.0224 45.6962 62.6302 45.3041L62.1523 44.8265V25.1085C62.1523 22.3473 60.2039 20.1011 57.8087 20.1011H22.8436C20.4485 20.1011 18.5 22.3473 18.5 25.1085V50.9817C18.5 53.7429 20.4485 55.9892 22.8436 55.9892H28.2749C28.7861 55.9892 29.2006 55.5747 29.2006 55.0635C29.2006 54.5523 28.7861 54.1378 28.2749 54.1378H22.8436C21.4928 54.1378 20.3515 52.6925 20.3515 50.9818V34.1872H60.3008V43.5418C60.1953 43.5255 60.0885 43.5149 59.9797 43.5149C59.9786 43.5149 59.9775 43.5149 59.9765 43.5149C59.4219 43.5158 58.902 43.7317 58.5157 44.1201L58.2655 44.3692C57.7163 44.0791 57.1443 43.8431 56.5545 43.6629V43.3331C56.5545 42.189 55.6235 41.2582 54.479 41.2582H52.8038C51.6609 41.2582 50.7311 42.189 50.7311 43.3331V43.6854C50.1524 43.8673 49.5936 44.1013 49.0595 44.3855L48.8198 44.1464C48.4304 43.7551 47.9104 43.539 47.3558 43.5382C47.3548 43.5382 47.3538 43.5382 47.3527 43.5382C46.7979 43.5382 46.2771 43.7535 45.8858 44.1445L44.7022 45.3275C44.3101 45.7195 44.0946 46.2415 44.0954 46.7973C44.0963 47.352 44.3124 47.8718 44.7011 48.2581L44.9568 48.5145C44.6793 49.0442 44.4513 49.5967 44.275 50.1677H43.9234C42.7804 50.1677 41.8506 51.0972 41.8506 52.2399V53.9167C41.8506 53.9913 41.8547 54.0649 41.8624 54.1374H36.4762C35.965 54.1374 35.5505 54.5519 35.5505 55.0631C35.5505 55.5743 35.965 55.9888 36.4762 55.9888H43.9233H44.2785C44.4575 56.5652 44.6889 57.1221 44.9712 57.6553L44.721 57.9043C43.9157 58.714 43.9164 60.0284 44.723 60.8343L45.9071 62.018C46.2965 62.4093 46.8165 62.6254 47.3711 62.6263H47.3742C47.929 62.6263 48.4498 62.411 48.8412 62.0198L49.0891 61.7721C49.627 62.0556 50.1863 62.2873 50.7621 62.4653V62.8236C50.7621 63.9678 51.6919 64.8985 52.835 64.8985H54.5127C55.6557 64.8985 56.5855 63.9678 56.5855 62.8236V62.4675C57.1667 62.2883 57.7283 62.0556 58.2656 61.772L58.5124 62.0179C58.9017 62.4093 59.4216 62.6253 59.9762 62.6263H59.9794C60.5342 62.6263 61.055 62.411 61.4471 62.0192L62.628 60.8362C63.0197 60.4469 63.2359 59.9271 63.2367 59.3724C63.2376 58.8165 63.0221 58.2945 62.6299 57.9025L62.3829 57.6555C62.6646 57.1219 62.8958 56.5646 63.0745 55.9889H63.4244C64.5688 55.9889 65.4998 55.0593 65.4998 53.9167V52.2399C65.5 51.0974 64.569 50.1679 63.4246 50.1679ZM20.3515 32.3358V25.1085C20.3515 23.3979 21.4928 21.9525 22.8436 21.9525H57.8087C59.1596 21.9525 60.3009 23.3979 60.3009 25.1085V32.3359H20.3515V32.3358ZM63.6485 53.9169C63.6485 54.0345 63.5439 54.1376 63.4245 54.1376H62.3659C61.9342 54.1376 61.5599 54.4359 61.4635 54.8566C61.2636 55.7291 60.9202 56.5566 60.4427 57.3162C60.2128 57.682 60.2665 58.1582 60.5722 58.4636L61.3212 59.2122C61.3772 59.2682 61.3855 59.3351 61.3855 59.3699C61.3854 59.4116 61.3746 59.4721 61.3205 59.5257L60.1378 60.7105C60.0817 60.7665 60.0148 60.775 59.9795 60.775C59.9794 60.775 59.9793 60.775 59.9793 60.775C59.9373 60.775 59.8766 60.7641 59.8224 60.7094L59.0705 59.9607C58.7648 59.6563 58.2894 59.6035 57.9244 59.833C57.1636 60.3115 56.3327 60.6555 55.4545 60.8553C55.0332 60.9513 54.7342 61.3259 54.7342 61.758V62.8239C54.7342 62.9429 54.6308 63.0473 54.5129 63.0473H52.8351C52.7172 63.0473 52.6137 62.943 52.6137 62.8239V61.7554C52.6137 61.3228 52.3141 60.9478 51.8922 60.8525C51.0252 60.6564 50.1957 60.313 49.427 59.832C49.2755 59.7371 49.1054 59.6909 48.9362 59.6909C48.697 59.6909 48.46 59.7833 48.2815 59.9619L47.5325 60.7105C47.4764 60.7665 47.4095 60.775 47.3742 60.775C47.3742 60.775 47.3741 60.775 47.374 60.775C47.332 60.775 47.2712 60.7641 47.2181 60.7106L46.032 59.5251C45.9489 59.4421 45.9498 59.295 46.0309 59.2135L46.7826 58.4648C47.0898 58.159 47.1435 57.6811 46.9121 57.3146C46.4339 56.5575 46.09 55.7306 45.8899 54.8568C45.7935 54.4361 45.4192 54.1378 44.9874 54.1378H43.9235C43.8035 54.1378 43.7021 54.0367 43.7021 53.9171V52.2403C43.7021 52.1207 43.8035 52.0195 43.9235 52.0195H44.9848C45.4169 52.0195 45.7916 51.7205 45.8875 51.2993C46.0851 50.4311 46.4245 49.6076 46.8964 48.8514C47.1243 48.4863 47.0705 48.0124 46.7666 47.7076L46.0092 46.9481C45.9578 46.897 45.947 46.8365 45.9469 46.7949C45.9469 46.76 45.9552 46.6932 46.0112 46.6373L47.1946 45.4544C47.2507 45.3984 47.3176 45.3899 47.3529 45.3899H47.3531C47.3951 45.39 47.4559 45.4008 47.5101 45.4555L48.2566 46.199C48.5633 46.5044 49.0404 46.5568 49.4055 46.3251C50.1619 45.8455 50.9904 45.4981 51.8678 45.2928C52.2864 45.1949 52.5824 44.8214 52.5824 44.3914V43.3334C52.5824 43.2123 52.6838 43.11 52.8038 43.11H54.479C54.6004 43.11 54.703 43.2123 54.703 43.3334V44.3758C54.703 44.8096 55.0041 45.1851 55.4276 45.2794C56.3084 45.4756 57.1487 45.822 57.9252 46.3092C58.2901 46.5379 58.765 46.4851 59.0705 46.1808L59.8253 45.429C59.8765 45.3775 59.9372 45.3667 59.9791 45.3666H59.9794C60.0147 45.3666 60.0816 45.375 60.1376 45.431L61.3211 46.6138C61.3771 46.6698 61.3854 46.7367 61.3854 46.7716C61.3853 46.8132 61.3745 46.8737 61.32 46.9278L60.5709 47.6791C60.2658 47.9851 60.213 48.4614 60.4435 48.8267C60.9227 49.5865 61.2675 50.4186 61.4684 51.2996C61.5644 51.7208 61.9389 52.0196 62.371 52.0196H63.4245C63.5438 52.0196 63.6485 52.1229 63.6485 52.2404V53.9169Z" fill="#E5F6F4"/>
<path d="M53.6758 47.4253C50.5564 47.4253 48.0186 49.962 48.0186 53.0801C48.0186 56.1967 50.5564 58.7323 53.6758 58.7323C56.7939 58.7323 59.3305 56.1968 59.3305 53.0801C59.3305 49.9621 56.7939 47.4253 53.6758 47.4253ZM53.6758 56.8808C51.5773 56.8808 49.87 55.1758 49.87 53.0801C49.87 50.9829 51.5773 49.2767 53.6758 49.2767C55.7729 49.2767 57.4791 50.9829 57.4791 53.0801C57.4791 55.1758 55.7728 56.8808 53.6758 56.8808Z" fill="#E5F6F4"/>
<path d="M32.4031 54.1377H32.3849C31.8737 54.1377 31.4592 54.5522 31.4592 55.0634C31.4592 55.5746 31.8737 55.9891 32.3849 55.9891H32.4031C32.9143 55.9891 33.3288 55.5746 33.3288 55.0634C33.3288 54.5522 32.9143 54.1377 32.4031 54.1377Z" fill="#E5F6F4"/>
</g>
<defs>
<clipPath id="clip0_4878_85699">
<rect width="47" height="47" fill="white" transform="translate(18.5 19)"/>
</clipPath>
</defs>
</svg>
