<svg width="60" height="60" viewBox="0 0 60 60" fill="none" xmlns="http://www.w3.org/2000/svg">
<rect x="60" width="60" height="60" rx="30" transform="rotate(90 60 0)" fill="#008576"/>
<g clip-path="url(#clip0_4878_85532)">
<path d="M35.9663 22.9289L30 28.8951L24.0338 22.9289C23.7287 22.6238 23.2341 22.6238 22.929 22.9289C22.6239 23.234 22.6239 23.7287 22.929 24.0338L28.8952 30L22.929 35.9662C22.6239 36.2713 22.6239 36.766 22.929 37.0711C23.2341 37.3762 23.7287 37.3762 24.0338 37.0711L30 31.1049L35.9663 37.0711C36.2714 37.3762 36.766 37.3762 37.0711 37.0711C37.3762 36.766 37.3762 36.2713 37.0711 35.9662L31.1049 30L37.0711 24.0338C37.3762 23.7287 37.3762 23.234 37.0711 22.9289C36.766 22.6238 36.2714 22.6238 35.9663 22.9289Z" fill="white"/>
</g>
<defs>
<clipPath id="clip0_4878_85532">
<rect width="20" height="20" fill="white" transform="translate(15.8579 30) rotate(-45)"/>
</clipPath>
</defs>
</svg>
