<svg width="80" height="80" viewBox="0 0 80 80" fill="none" xmlns="http://www.w3.org/2000/svg">
<rect width="80" height="80" rx="40" fill="#004B49"/>
<path d="M61.8093 52.004L54.7627 44.9564L56.1534 43.946C57.5145 42.9572 58.0797 41.2176 57.5599 39.6173L56.6102 36.6948C56.5099 36.3859 56.5099 36.0593 56.6102 35.7505L57.5599 32.8278C58.0798 31.2276 57.5145 29.488 56.1534 28.4993L53.6673 26.6928C53.4044 26.5019 53.2125 26.2378 53.1123 25.9289L52.1626 23.0062C51.6426 21.4062 50.163 20.331 48.4805 20.331H45.4073C45.0826 20.331 44.772 20.2301 44.5093 20.0392L42.0232 18.2328C40.662 17.244 38.833 17.244 37.4717 18.2328L34.9855 20.0393C34.7227 20.2302 34.4122 20.3311 34.0875 20.3311H31.0143C29.3319 20.3311 27.8521 21.4062 27.3322 23.0063L26.3825 25.9291C26.2822 26.2378 26.0902 26.5019 25.8275 26.6929L23.3414 28.4993C21.9802 29.4882 21.415 31.2278 21.9349 32.8278L22.8846 35.7505C22.9849 36.0593 22.9849 36.3859 22.8846 36.6947L21.9349 39.6174C21.415 41.2176 21.9802 42.9573 23.3414 43.946L24.732 44.9564L17.6854 52.0039C17.4058 52.2835 17.2862 52.6854 17.3671 53.0724C17.4481 53.4596 17.7189 53.7797 18.0873 53.9238L23.7468 56.1382L25.9612 61.7978C26.1052 62.1661 26.4254 62.4368 26.8126 62.5179C26.8924 62.5346 26.9728 62.5427 27.0526 62.5427C27.3601 62.5427 27.6591 62.4215 27.8812 62.1995L36.5437 53.538L37.4717 54.2123C38.1523 54.7067 38.9498 54.9539 39.7474 54.9539C40.5448 54.9539 41.3425 54.7067 42.023 54.2122L42.9512 53.5379L51.6138 62.1995C51.8359 62.4215 52.1348 62.5427 52.4423 62.5427C52.5221 62.5427 52.6025 62.5346 52.6823 62.5179C53.0695 62.4369 53.3895 62.1661 53.5337 61.7978L55.748 56.1382L61.4076 53.9238C61.7759 53.7798 62.0466 53.4596 62.1277 53.0724C62.2087 52.6855 62.0889 52.2835 61.8093 52.004ZM27.491 59.2753L25.7427 54.8068C25.6236 54.5024 25.3828 54.2617 25.0783 54.1425L20.6098 52.3942L26.4082 46.5949L27.3323 49.4389C27.8523 51.0391 29.3319 52.1142 31.0144 52.1142H34.0876C34.2549 52.1142 34.4184 52.1415 34.5735 52.1935L27.491 59.2753ZM38.8493 52.3162L36.3631 50.5098C35.6973 50.0262 34.9105 49.7705 34.0876 49.7705H31.0144C30.3505 49.7705 29.7665 49.3462 29.5614 48.7147L28.6118 45.7922C28.3688 45.0443 27.912 44.4019 27.2912 43.924C27.2698 43.9057 27.2478 43.8887 27.2255 43.8723C27.2186 43.8671 27.2123 43.8614 27.2053 43.8563L24.7191 42.0499C24.1821 41.6598 23.9589 40.9732 24.1641 40.3418L25.1138 37.4191C25.3681 36.6364 25.3681 35.8091 25.1138 35.0264L24.1641 32.1038C23.9589 31.4723 24.1821 30.7858 24.7191 30.3955L27.2053 28.5892C27.8712 28.1053 28.3576 27.4359 28.6118 26.6535L29.5614 23.7308C29.7665 23.0993 30.3506 22.6751 31.0144 22.6751H34.0876C34.9106 22.6751 35.6975 22.4194 36.3632 21.9356L38.8493 20.1294C39.3864 19.7392 40.1085 19.739 40.6455 20.1294L43.1316 21.9358C43.7975 22.4196 44.5843 22.6753 45.4073 22.6753H48.4805C49.1444 22.6753 49.7282 23.0996 49.9334 23.731L50.8831 26.6536C51.1373 27.4363 51.6236 28.1056 52.2896 28.5894L54.7759 30.3958C55.3129 30.7861 55.5359 31.4726 55.3307 32.1041L54.381 35.0269C54.1269 35.8094 54.1269 36.6368 54.381 37.4195L55.3307 40.3421C55.5359 40.9737 55.3129 41.66 54.7757 42.0504L52.2897 43.8566C52.281 43.8629 52.2732 43.8701 52.2645 43.8764C52.2447 43.8912 52.2251 43.9063 52.206 43.9224C51.584 44.4004 51.1264 45.0436 50.8831 45.7923L49.9334 48.7151C49.7282 49.3466 49.1444 49.7708 48.4805 49.7708H45.4073C44.5845 49.7708 43.7976 50.0265 43.1316 50.5103L40.6456 52.3165C40.1081 52.7066 39.3863 52.7062 38.8493 52.3162ZM54.4166 54.1425C54.1121 54.2617 53.8714 54.5024 53.7522 54.8068L52.0039 59.2753L44.9212 52.1937C45.0764 52.1415 45.2398 52.1143 45.4072 52.1143H48.4804C50.1628 52.1143 51.6425 51.0392 52.1625 49.4392L53.0866 46.5949L58.8851 52.3943L54.4166 54.1425Z" fill="#66CABE"/>
<path d="M45.1671 44.9147C45.41 44.9147 45.6519 44.8391 45.856 44.6909C46.2169 44.4288 46.3977 43.9845 46.3223 43.5448L45.3914 38.117L49.3349 34.273C49.6543 33.9617 49.7692 33.496 49.6313 33.0718C49.4934 32.6475 49.1267 32.3384 48.6854 32.2742L43.2355 31.4822L40.7983 26.5438C40.6009 26.1439 40.1935 25.8906 39.7474 25.8906C39.3013 25.8906 38.8939 26.1439 38.6966 26.5438L36.2594 31.4822L30.8096 32.2742C30.3682 32.3383 30.0015 32.6475 29.8636 33.0718C29.7256 33.496 29.8407 33.9617 30.1602 34.273L34.1037 38.117L33.1727 43.5448C33.0972 43.9845 33.2779 44.4288 33.6389 44.6909C33.9997 44.9532 34.4782 44.9876 34.873 44.7802L39.7474 42.2175L44.6219 44.7801C44.7934 44.8702 44.9805 44.9147 45.1671 44.9147ZM40.2927 39.8563C40.1219 39.7666 39.9347 39.7218 39.7474 39.7218C39.5601 39.7218 39.3728 39.7667 39.2021 39.8563L35.8841 41.6008L36.5178 37.906C36.5831 37.5258 36.457 37.1379 36.1808 36.8686L33.4965 34.2521L37.2062 33.7129C37.5879 33.6575 37.9179 33.4177 38.0885 33.0719L39.7474 29.7105L41.4063 33.072C41.5771 33.4178 41.9069 33.6576 42.2886 33.713L45.9984 34.2522L43.314 36.8688C43.0379 37.1379 42.9118 37.5258 42.977 37.9061L43.6107 41.6009L40.2927 39.8563Z" fill="#66CABE"/>
</svg>
